<svg width="35" height="35" viewBox="0 0 35 35" fill="none" xmlns="http://www.w3.org/2000/svg">
<path d="M24.5878 2.75164L21.054 2.74551C17.0838 2.74551 14.5181 5.59185 14.5181 9.99731V13.3409H10.965C10.6579 13.3409 10.4093 13.61 10.4093 13.942V18.7865C10.4093 19.1184 10.6582 19.3873 10.965 19.3873H14.5181V31.6113C14.5181 31.9433 14.7667 32.2122 15.0738 32.2122H19.7096C20.0166 32.2122 20.2653 31.9431 20.2653 31.6113V19.3873H24.4197C24.7267 19.3873 24.9754 19.1184 24.9754 18.7865L24.9771 13.942C24.9771 13.7826 24.9184 13.6299 24.8143 13.5171C24.7103 13.4043 24.5686 13.3409 24.4211 13.3409H20.2653V10.5065C20.2653 9.14418 20.5655 8.45259 22.2067 8.45259L24.5873 8.45166C24.894 8.45166 25.1426 8.18251 25.1426 7.85084V3.35249C25.1426 3.0211 24.8943 2.75226 24.5878 2.75164Z" fill="#E3E3E3"/>
</svg>
