<svg width="35" height="35" viewBox="0 0 35 35" fill="none" xmlns="http://www.w3.org/2000/svg">
<path fill-rule="evenodd" clip-rule="evenodd" d="M22.7342 3.13303H11.6843C6.59943 3.13303 2.47595 7.25652 2.47595 12.3414V23.3914C2.47595 28.4763 6.59943 32.5997 11.6843 32.5997H22.7342C27.8192 32.5997 31.9426 28.4763 31.9426 23.3914V12.3414C31.9426 7.25652 27.8192 3.13303 22.7342 3.13303ZM29.18 23.3914C29.18 26.9458 26.2886 29.8372 22.7342 29.8372H11.6843C8.12985 29.8372 5.23845 26.9458 5.23845 23.3914V12.3414C5.23845 8.78694 8.12985 5.89553 11.6843 5.89553H22.7342C26.2886 5.89553 29.18 8.78694 29.18 12.3414V23.3914ZM17.2093 10.4997C13.141 10.4997 9.84261 13.7981 9.84261 17.8664C9.84261 21.9346 13.141 25.233 17.2093 25.233C21.2775 25.233 24.5759 21.9346 24.5759 17.8664C24.5759 13.7981 21.2775 10.4997 17.2093 10.4997ZM17.2093 22.4705C14.6714 22.4705 12.6051 20.4042 12.6051 17.8664C12.6051 15.3267 14.6714 13.2622 17.2093 13.2622C19.7471 13.2622 21.8134 15.3267 21.8134 17.8664C21.8134 20.4042 19.7471 22.4705 17.2093 22.4705ZM26.11 9.94717C26.11 10.4893 25.6705 10.9288 25.1284 10.9288C24.5863 10.9288 24.1468 10.4893 24.1468 9.94717C24.1468 9.40506 24.5863 8.96556 25.1284 8.96556C25.6705 8.96556 26.11 9.40506 26.11 9.94717Z" fill="#E3E3E3"/>
</svg>
