<svg width="50" height="50" viewBox="0 0 50 50" fill="none" xmlns="http://www.w3.org/2000/svg">
<circle cx="25" cy="25" r="25" fill="#C4C4C4"/>
<path d="M31.5092 12.0055L27.8929 12C23.8301 12 21.2046 14.5414 21.2046 18.4748V21.4601H17.5686C17.2544 21.4601 17 21.7005 17 21.9969V26.3223C17 26.6187 17.2547 26.8587 17.5686 26.8587H21.2046V37.773C21.2046 38.0695 21.4591 38.3095 21.7733 38.3095H26.5172C26.8314 38.3095 27.0858 38.0692 27.0858 37.773V26.8587H31.3371C31.6513 26.8587 31.9057 26.6187 31.9057 26.3223L31.9075 21.9969C31.9075 21.8545 31.8475 21.7182 31.741 21.6175C31.6345 21.5168 31.4895 21.4601 31.3386 21.4601H27.0858V18.9294C27.0858 17.7131 27.393 17.0956 29.0725 17.0956L31.5086 17.0948C31.8225 17.0948 32.0769 16.8545 32.0769 16.5583V12.5419C32.0769 12.2461 31.8228 12.006 31.5092 12.0055Z" fill="#131313"/>
</svg>
