<svg width="50" height="51" viewBox="0 0 50 51" fill="none" xmlns="http://www.w3.org/2000/svg">
<circle cx="25" cy="25.3457" r="25" fill="#C4C4C4"/>
<path fill-rule="evenodd" clip-rule="evenodd" d="M29.875 12H20.125C15.6384 12 12 15.7783 12 20.4375V30.5625C12 35.2218 15.6384 39 20.125 39H29.875C34.3617 39 38 35.2218 38 30.5625V20.4375C38 15.7783 34.3617 12 29.875 12ZM35.5624 30.5625C35.5624 33.8194 33.0112 36.4688 29.875 36.4688H20.125C16.9887 36.4688 14.4375 33.8194 14.4375 30.5625V20.4375C14.4375 17.1806 16.9887 14.5312 20.125 14.5312H29.875C33.0112 14.5312 35.5624 17.1806 35.5624 20.4375V30.5625ZM25 18.75C21.4104 18.75 18.5 21.7723 18.5 25.5C18.5 29.2277 21.4104 32.25 25 32.25C28.5896 32.25 31.5 29.2277 31.5 25.5C31.5 21.7723 28.5896 18.75 25 18.75ZM25 29.7188C22.7607 29.7188 20.9375 27.8254 20.9375 25.5C20.9375 23.1729 22.7607 21.2812 25 21.2812C27.2392 21.2812 29.0625 23.1729 29.0625 25.5C29.0625 27.8254 27.2392 29.7188 25 29.7188ZM32.8536 18.2437C32.8536 18.7405 32.4658 19.1432 31.9875 19.1432C31.5091 19.1432 31.1213 18.7405 31.1213 18.2437C31.1213 17.747 31.5091 17.3443 31.9875 17.3443C32.4658 17.3443 32.8536 17.747 32.8536 18.2437Z" fill="#131313"/>
</svg>
