<svg width="30" height="30" viewBox="0 0 30 30" fill="none" xmlns="http://www.w3.org/2000/svg">
<path d="M21.5105 2.00541L18.3923 2C14.8893 2 12.6254 4.51147 12.6254 8.39864V11.3488H9.49029C9.21938 11.3488 9 11.5863 9 11.8793V16.1538C9 16.4467 9.21963 16.6839 9.49029 16.6839H12.6254V27.4698C12.6254 27.7628 12.8448 28 13.1157 28H17.2061C17.4771 28 17.6964 27.7625 17.6964 27.4698V16.6839H21.3621C21.633 16.6839 21.8524 16.4467 21.8524 16.1538L21.8539 11.8793C21.8539 11.7386 21.8021 11.6039 21.7103 11.5044C21.6185 11.4048 21.4935 11.3488 21.3634 11.3488H17.6964V8.84792C17.6964 7.64588 17.9613 7.03566 19.4094 7.03566L21.51 7.03484C21.7806 7.03484 22 6.79735 22 6.5047V2.53556C22 2.24317 21.7809 2.00595 21.5105 2.00541Z" fill="#131313"/>
</svg>
