<svg xmlns="http://www.w3.org/2000/svg" width="30" height="30" fill="none" viewBox="0 0 30 30">
    <path fill="#131313" d="M21.51 2.005L18.393 2c-3.503 0-5.767 2.511-5.767 6.399v2.95H9.49c-.27 0-.49.237-.49.53v4.275c0 .293.22.53.49.53h3.135V27.47c0 .293.22.53.49.53h4.091c.271 0 .49-.238.49-.53V16.684h3.666c.271 0 .49-.237.49-.53l.002-4.275c0-.14-.052-.275-.144-.375-.091-.1-.216-.155-.347-.155h-3.667V8.848c0-1.202.265-1.812 1.713-1.812l2.101-.001c.27 0 .49-.238.49-.53v-3.97c0-.292-.22-.53-.49-.53z"/>
</svg>
