<svg xmlns="http://www.w3.org/2000/svg" width="30" height="30" fill="none" viewBox="0 0 30 30">
    <path fill="#131313" fill-rule="evenodd" d="M19.875 2h-9.75C5.638 2 2 5.638 2 10.125v9.75C2 24.362 5.638 28 10.125 28h9.75C24.362 28 28 24.362 28 19.875v-9.75C28 5.638 24.362 2 19.875 2zm5.687 17.875c0 3.136-2.55 5.688-5.687 5.688h-9.75c-3.136 0-5.688-2.552-5.688-5.688v-9.75c0-3.136 2.552-5.688 5.688-5.688h9.75c3.136 0 5.687 2.552 5.687 5.688v9.75zM15 8.5c-3.59 0-6.5 2.91-6.5 6.5s2.91 6.5 6.5 6.5 6.5-2.91 6.5-6.5-2.91-6.5-6.5-6.5zm0 10.563c-2.24 0-4.063-1.824-4.063-4.063 0-2.24 1.824-4.063 4.063-4.063 2.24 0 4.063 1.822 4.063 4.063 0 2.24-1.824 4.063-4.063 4.063zm7.854-11.05c0 .478-.388.866-.866.866-.479 0-.867-.388-.867-.867 0-.478.388-.866.867-.866.478 0 .866.388.866.866z" clip-rule="evenodd"/>
</svg>
