<svg width="30" height="30" viewBox="0 0 30 30" fill="none" xmlns="http://www.w3.org/2000/svg">
<path fill-rule="evenodd" clip-rule="evenodd" d="M19.875 2H10.125C5.63837 2 2 5.63838 2 10.125V19.875C2 24.3617 5.63837 28 10.125 28H19.875C24.3617 28 28 24.3617 28 19.875V10.125C28 5.63838 24.3617 2 19.875 2ZM25.5624 19.875C25.5624 23.0113 23.0112 25.5625 19.875 25.5625H10.125C6.98873 25.5625 4.4375 23.0113 4.4375 19.875V10.125C4.4375 6.98875 6.98873 4.4375 10.125 4.4375H19.875C23.0112 4.4375 25.5624 6.98875 25.5624 10.125V19.875ZM15 8.5C11.4104 8.5 8.49999 11.4104 8.49999 15C8.49999 18.5896 11.4104 21.5 15 21.5C18.5896 21.5 21.5 18.5896 21.5 15C21.5 11.4104 18.5896 8.5 15 8.5ZM15 19.0625C12.7607 19.0625 10.9375 17.2393 10.9375 15C10.9375 12.7591 12.7607 10.9375 15 10.9375C17.2392 10.9375 19.0625 12.7591 19.0625 15C19.0625 17.2393 17.2392 19.0625 15 19.0625ZM22.8536 8.01248C22.8536 8.49084 22.4658 8.8786 21.9875 8.8786C21.5091 8.8786 21.1213 8.49084 21.1213 8.01248C21.1213 7.53414 21.5091 7.14635 21.9875 7.14635C22.4658 7.14635 22.8536 7.53414 22.8536 8.01248Z" fill="#131313"/>
</svg>
